HIERARCHY
ROOT hip
{
	OFFSET 0.000000 0.000000 0.000000
	CHANNELS 6 Xposition Yposition Zposition Xrotation Zrotation Yrotation 
	JOINT abdomen
	{
		OFFSET 0.000000 3.422050 0.000000
		CHANNELS 3 Xrotation Zrotation Yrotation 
		JOINT chest
		{
			OFFSET 0.000000 8.486693 -0.684411
			CHANNELS 3 Xrotation Zrotation Yrotation 
			JOINT neck
			{
				OFFSET 0.000000 10.266162 -0.273764
				CHANNELS 3 Xrotation Zrotation Yrotation 
				JOINT head
				{
					OFFSET 0.000000 3.148285 0.000000
					CHANNELS 3 Xrotation Zrotation Yrotation 
					End Site
					{
						OFFSET 0.000000 3.148289 0.000000
					}
				}
			}
			JOINT lCollar
			{
				OFFSET 3.422053 6.707223 -0.821293
				CHANNELS 3 Yrotation Zrotation Xrotation 
				JOINT lShldr
				{
					OFFSET 3.285171 0.000000 0.000000
					CHANNELS 3 Zrotation Yrotation Xrotation 
					JOINT lForeArm
					{
						OFFSET 10.129278 0.000000 0.000000
						CHANNELS 3 Yrotation Zrotation Xrotation 
						JOINT lHand
						{
							OFFSET 8.486692 0.000000 0.000000
							CHANNELS 3 Zrotation Yrotation Xrotation 
							End Site
							{
								OFFSET 4.106464 0.000000 0.000000
							}
						}
					}
				}
			}
			JOINT rCollar
			{
				OFFSET -3.558935 6.707223 -0.821293
				CHANNELS 3 Yrotation Zrotation Xrotation 
				JOINT rShldr
				{
					OFFSET -3.148289 0.000000 0.000000
					CHANNELS 3 Zrotation Yrotation Xrotation 
					JOINT rForeArm
					{
						OFFSET -10.266159 0.000000 0.000000
						CHANNELS 3 Yrotation Zrotation Xrotation 
						JOINT rHand
						{
							OFFSET -8.349810 0.000000 0.000000
							CHANNELS 3 Zrotation Yrotation Xrotation 
							End Site
							{
								OFFSET -4.106464 0.000000 0.000000
							}
						}
					}
				}
			}
		}
	}
	JOINT lThigh
	{
		OFFSET 5.338403 -1.642589 1.368821
		CHANNELS 3 Xrotation Zrotation Yrotation 
		JOINT lShin
		{
			OFFSET -2.053232 -20.121670 0.000000
			CHANNELS 3 Xrotation Zrotation Yrotation 
			JOINT lFoot
			{
				OFFSET 0.000000 -19.300380 -1.231939
				CHANNELS 3 Xrotation Yrotation Zrotation 
				End Site
				{
					OFFSET 0.000000 -2.463878 4.653993
				}
			}
		}
	}
	JOINT rThigh
	{
		OFFSET -5.338403 -1.642589 1.368821
		CHANNELS 3 Xrotation Zrotation Yrotation 
		JOINT rShin
		{
			OFFSET 2.053232 -20.121670 0.000000
			CHANNELS 3 Xrotation Zrotation Yrotation 
			JOINT rFoot
			{
				OFFSET 0.000000 -19.300380 -1.231939
				CHANNELS 3 Xrotation Yrotation Zrotation 
				End Site
				{
					OFFSET 0.000000 -2.463878 4.653993
				}
			}
		}
	}
}
MOTION
Frames: 13
Frame Time: 0.033264
0.000000 40.593857 27.247051 109.999611 -0.000001 0.000001 40.472313 -0.938490 -0.765153 20.248421 0.228881 -0.737148 -5.696033 0.000000 0.000000 19.032719 0.000000 0.000000 -7.990960 41.696415 -0.285035 47.218487 -11.956218 -60.040581 -3.300423 12.830575 -1.341636 -3.691666 -0.044181 -0.556655 8.009521 -41.878513 -0.210985 -47.238686 11.915225 -60.070919 3.292549 -12.826230 -1.317992 3.767350 -0.280149 -0.791251 -110.113045 6.151549 -3.602053 -0.212163 -3.960702 0.317006 41.409473 6.769920 0.428719 -110.028793 -6.234544 3.584186 -0.376144 4.068509 -0.393040 41.459930 -6.784400 -0.532711 
0.000000 40.593857 27.274235 109.999611 -0.000001 0.000001 40.322250 -0.938483 -0.765136 20.598892 0.228867 -0.737202 -5.435632 0.000000 0.000000 19.473532 0.000000 0.000000 -7.872365 41.778671 -0.438241 47.218487 -11.956218 -60.040581 -3.300423 12.830575 -1.341636 -3.691667 -0.044181 -0.556655 7.892690 -41.968666 -0.361354 -47.238686 11.915225 -60.070919 3.292549 -12.826230 -1.317992 3.767350 -0.280149 -0.791251 -110.113045 6.151549 -3.602053 -0.212163 -3.960702 0.317006 41.409473 6.769920 0.428719 -110.028793 -6.234544 3.584186 -0.376144 4.068509 -0.393040 41.459930 -6.784400 -0.532711 
0.000000 40.593857 27.301420 109.999611 -0.000001 0.000001 40.172211 -0.938477 -0.765120 20.949347 0.228853 -0.737255 -5.175354 0.000000 0.000000 19.913742 0.000000 0.000000 -7.753320 41.860668 -0.591870 47.218487 -11.956218 -60.040581 -3.300423 12.830575 -1.341636 -3.691666 -0.044181 -0.556655 7.775378 -42.058605 -0.512183 -47.238686 11.915225 -60.070919 3.292549 -12.826230 -1.317992 3.767350 -0.280149 -0.791251 -110.113045 6.151549 -3.602053 -0.212163 -3.960702 0.317006 41.409473 6.769920 0.428719 -110.028793 -6.234544 3.584186 -0.376144 4.068509 -0.393040 41.459930 -6.784400 -0.532711 
0.000000 40.593857 27.328604 109.999611 -0.000001 0.000001 40.022148 -0.938471 -0.765103 21.299778 0.228840 -0.737309 -4.915205 0.000000 0.000000 20.353323 0.000000 0.000000 -7.633830 41.942448 -0.745924 47.218487 -11.956218 -60.040581 -3.300423 12.830575 -1.341636 -3.691667 -0.044181 -0.556655 7.657583 -42.148319 -0.663472 -47.238686 11.915225 -60.070919 3.292549 -12.826230 -1.317992 3.767350 -0.280149 -0.791251 -110.113045 6.151549 -3.602053 -0.212163 -3.960702 0.317006 41.409473 6.769920 0.428719 -110.028793 -6.234544 3.584186 -0.376144 4.068509 -0.393040 41.459930 -6.784400 -0.532711 
0.000000 40.593857 27.355787 109.999611 -0.000001 0.000001 39.872112 -0.938464 -0.765087 21.650188 0.228827 -0.737363 -4.655186 0.000000 0.000000 20.792267 0.000000 0.000000 -7.513895 42.023983 -0.900402 47.218487 -11.956218 -60.040581 -3.300423 12.830575 -1.341636 -3.691666 -0.044181 -0.556655 7.539301 -42.237793 -0.815223 -47.238686 11.915225 -60.070919 3.292549 -12.826230 -1.317992 3.767350 -0.280149 -0.791251 -110.113045 6.151549 -3.602053 -0.212163 -3.960702 0.317006 41.409473 6.769920 0.428719 -110.028793 -6.234544 3.584186 -0.376144 4.068509 -0.393040 41.459930 -6.784400 -0.532711 
0.000000 40.593857 27.382971 109.999611 -0.000001 0.000001 39.722065 -0.938458 -0.765070 22.000566 0.228814 -0.737417 -4.395301 0.000000 0.000000 21.230568 0.000000 0.000000 -7.393508 42.105259 -1.055305 47.218487 -11.956218 -60.040581 -3.300423 12.830575 -1.341636 -3.691666 -0.044181 -0.556655 7.420532 -42.327023 -0.967436 -47.238686 11.915225 -60.070919 3.292549 -12.826230 -1.317992 3.767350 -0.280149 -0.791251 -110.113045 6.151549 -3.602053 -0.212163 -3.960702 0.317006 41.409473 6.769920 0.428719 -110.028793 -6.234544 3.584186 -0.376144 4.068509 -0.393040 41.459930 -6.784400 -0.532711 
0.000000 40.593857 27.410154 109.999611 -0.000001 0.000001 39.572014 -0.938451 -0.765053 22.350904 0.228802 -0.737471 -4.135550 0.000000 0.000000 21.668211 0.000000 0.000000 -7.272676 42.186310 -1.210636 47.218487 -11.956218 -60.040581 -3.300423 12.830575 -1.341636 -3.691666 -0.044181 -0.556655 7.301278 -42.416023 -1.120113 -47.238686 11.915225 -60.070919 3.292549 -12.826230 -1.317992 3.767350 -0.280149 -0.791251 -110.113045 6.151549 -3.602053 -0.212163 -3.960702 0.317006 41.409473 6.769920 0.428719 -110.028793 -6.234544 3.584186 -0.376144 4.068509 -0.393040 41.459930 -6.784400 -0.532711 
0.000000 40.593857 27.437340 109.999611 -0.000001 0.000001 39.421970 -0.938445 -0.765037 22.701200 0.228790 -0.737526 -3.875936 0.000000 0.000000 22.105183 0.000000 0.000000 -7.151392 42.267094 -1.366393 47.218487 -11.956218 -60.040581 -3.300423 12.830575 -1.341636 -3.691666 -0.044181 -0.556655 7.181537 -42.504799 -1.273254 -47.238686 11.915225 -60.070919 3.292549 -12.826230 -1.317992 3.767350 -0.280149 -0.791251 -110.113045 6.151549 -3.602053 -0.212163 -3.960702 0.317006 41.409473 6.769920 0.428719 -110.028793 -6.234544 3.584186 -0.376144 4.068509 -0.393040 41.459930 -6.784400 -0.532711 
0.000000 40.593857 27.464523 109.999611 -0.000001 0.000001 39.271942 -0.938438 -0.765020 23.051437 0.228778 -0.737580 -3.616462 0.000000 0.000000 22.541473 0.000000 0.000000 -7.029660 42.347645 -1.522576 47.218487 -11.956218 -60.040581 -3.300423 12.830575 -1.341636 -3.691667 -0.044181 -0.556655 7.061304 -42.593319 -1.426861 -47.238686 11.915225 -60.070919 3.292549 -12.826230 -1.317992 3.767350 -0.280149 -0.791251 -110.113045 6.151549 -3.602053 -0.212163 -3.960702 0.317006 41.409473 6.769920 0.428719 -110.028793 -6.234544 3.584186 -0.376144 4.068509 -0.393040 41.459930 -6.784400 -0.532711 
0.000000 40.593857 27.491707 109.999611 -0.000001 0.000001 39.121906 -0.938431 -0.765004 23.401611 0.228767 -0.737634 -3.357132 0.000000 0.000000 22.977079 0.000000 0.000000 -6.907477 42.427940 -1.679187 47.218487 -11.956218 -60.040581 -3.300423 12.830575 -1.341636 -3.691666 -0.044181 -0.556655 6.940580 -42.681595 -1.580933 -47.238686 11.915225 -60.070919 3.292549 -12.826230 -1.317992 3.767350 -0.280149 -0.791251 -110.113045 6.151549 -3.602053 -0.212163 -3.960702 0.317006 41.409473 6.769920 0.428719 -110.028793 -6.234544 3.584186 -0.376144 4.068509 -0.393040 41.459930 -6.784400 -0.532711 
0.000000 40.593857 27.518890 109.999611 -0.000001 0.000001 38.971878 -0.938424 -0.764987 23.751732 0.228756 -0.737689 -3.097948 0.000000 0.000000 23.411972 0.000000 0.000000 -6.784847 42.508003 -1.836225 47.218487 -11.956218 -60.040581 -3.300423 12.830575 -1.341636 -3.691666 -0.044181 -0.556655 6.819368 -42.769638 -1.735472 -47.238686 11.915225 -60.070919 3.292549 -12.826230 -1.317992 3.767350 -0.280149 -0.791251 -110.113045 6.151549 -3.602053 -0.212163 -3.960702 0.317006 41.409473 6.769920 0.428719 -110.028793 -6.234544 3.584186 -0.376144 4.068509 -0.393040 41.459930 -6.784400 -0.532711 
0.000000 40.593857 27.546074 109.999611 -0.000001 0.000001 38.821861 -0.938418 -0.764971 24.101772 0.228745 -0.737743 -2.838913 0.000000 0.000000 23.846157 0.000000 0.000000 -6.661764 42.587799 -1.993693 47.218487 -11.956218 -60.040581 -3.300423 12.830575 -1.341636 -3.691666 -0.044181 -0.556655 6.697664 -42.857437 -1.890481 -47.238686 11.915225 -60.070919 3.292549 -12.826230 -1.317992 3.767350 -0.280149 -0.791251 -110.113045 6.151549 -3.602053 -0.212163 -3.960702 0.317006 41.409473 6.769920 0.428719 -110.028793 -6.234544 3.584186 -0.376144 4.068509 -0.393040 41.459930 -6.784400 -0.532711 
0.000000 40.593857 27.573259 109.999611 -0.000001 0.000001 38.671844 -0.938411 -0.764954 24.451736 0.228735 -0.737798 -2.580027 0.000000 0.000000 24.279623 0.000000 0.000000 -6.538229 42.667339 -2.151588 47.218487 -11.956218 -60.040581 -3.300423 12.830575 -1.341636 -3.691666 -0.044181 -0.556655 6.575467 -42.944981 -2.045958 -47.238686 11.915225 -60.070919 3.292549 -12.826230 -1.317992 3.767350 -0.280149 -0.791251 -110.113045 6.151549 -3.602053 -0.212163 -3.960702 0.317006 41.409473 6.769920 0.428719 -110.028793 -6.234544 3.584186 -0.376144 4.068509 -0.393040 41.459930 -6.784400 -0.532711 
